<?xml version="1.0" standalone="no"?>
<!DOCTYPE svg PUBLIC "-//W3C//DTD SVG 20010904//EN"
 "http://www.w3.org/TR/2001/REC-SVG-20010904/DTD/svg10.dtd">
<svg version="1.0" xmlns="http://www.w3.org/2000/svg"
 width="499.000000pt" height="135.000000pt" viewBox="0 0 499.000000 135.000000"
 preserveAspectRatio="xMidYMid meet">

<g transform="translate(0.000000,135.000000) scale(0.100000,-0.100000)"
fill="#000000" stroke="none">
<path d="M0 675 l0 -675 2495 0 2495 0 0 675 0 675 -2495 0 -2495 0 0 -675z
m858 248 c25 -16 42 -51 42 -89 0 -17 18 -45 55 -83 l55 -57 -35 -34 -34 -33
-50 46 c-29 27 -60 47 -73 47 -42 1 -106 37 -123 70 -22 42 -14 47 29 20 42
-25 68 -20 84 16 14 28 16 64 5 64 -18 0 -73 41 -68 50 8 13 83 2 113 -17z
m427 -13 c8 -12 -42 -88 -64 -95 -9 -3 -72 -59 -140 -124 -114 -109 -122 -120
-112 -140 11 -19 9 -23 -18 -32 -30 -10 -61 -47 -61 -71 0 -20 -132 -148 -153
-148 -21 0 -77 52 -77 72 0 20 130 143 172 163 24 11 40 27 47 47 8 24 15 28
31 23 16 -5 44 16 137 102 63 59 121 121 128 136 11 28 69 76 92 77 6 0 15 -4
18 -10z m-171 -318 c39 -37 62 -50 94 -56 54 -8 88 -30 108 -68 20 -40 12 -45
-29 -19 -44 27 -62 27 -81 -1 -16 -23 -22 -78 -8 -78 4 0 22 -9 41 -21 47 -28
29 -43 -36 -29 -62 14 -80 32 -92 94 -7 39 -19 59 -65 105 l-56 56 32 33 c18
17 35 32 37 32 2 0 27 -22 55 -48z"/>
</g>
</svg>
